<svg width="512" height="512" viewBox="0 0 512 512" fill="none" xmlns="http://www.w3.org/2000/svg">
  <!-- Background -->
  <rect width="512" height="512" rx="112" fill="#007AFF"/>
  
  <!-- Open book icon like 📚 emoji -->
  <path d="M256 160C256 160 192 185 128 185V370C192 370 256 345 256 345M256 160C256 160 320 185 384 185V370C320 370 256 345 256 345M256 160V345" 
        stroke="white" stroke-width="16" stroke-linecap="round" stroke-linejoin="round" fill="none"/>
  
  <!-- Detailed book pages -->
  <path d="M170 225V320M210 225V320M302 225V320M342 225V320" 
        stroke="white" stroke-width="8" stroke-opacity="0.7" stroke-linecap="round"/>
  
  <!-- Additional page details -->
  <path d="M180 245V300M200 245V300M312 245V300M332 245V300" 
        stroke="white" stroke-width="4" stroke-opacity="0.5" stroke-linecap="round"/>
  
  <!-- Book title decoration -->
  <circle cx="256" cy="265" r="12" fill="white" fill-opacity="0.3"/>
  <rect x="240" y="275" width="32" height="4" rx="2" fill="white" fill-opacity="0.3"/>
  <rect x="245" y="285" width="22" height="3" rx="1.5" fill="white" fill-opacity="0.2"/>
</svg> 